<svg role="img" viewBox="0 0 24 24" xmlns="http://www.w3.org/2000/svg" fill="currentColor"><path d="M11.754 0a.75.75 0 0 0-.405.122L.344 7.205A.75.75 0 0 0 0 7.88v8.366a.75.75 0 0 0 .344.633l11.005 7.083c.25.161.568.161.818 0l5.58-3.592V24l.008-.006.008.006v-3.63l5.237-3.372a.75.75 0 0 0 .344-.633v-8.61a.75.75 0 0 0-.315-.61L12.178.122A.75.75 0 0 0 11.754 0zm.008 1.64 10.254 6.86v7.866l-4.486 2.89V8.38l.007-.006-.007-.005v-.006h-1.5v11.954L11.762 22.4 1.5 16.366V8.5zm-.75 7.24v5.63H9.547V12h-3.54v2.51H4.502v-5.63h1.505v1.62h3.54v-1.62z"/></svg>
