<svg role="img" viewBox="0 0 24 24" xmlns="http://www.w3.org/2000/svg" fill="currentColor"><path d="M14.193 12.014a2.179 2.179 0 0 1-2.176 2.176H7.383a2.179 2.179 0 0 1-2.176-2.176 2.179 2.179 0 0 1 2.176-2.176h4.634a2.179 2.179 0 0 1 2.176 2.176zm8.043-4.589C20.859 3.048 16.788 0 12.003 0 7.22 0 3.15 3.046 1.766 7.424A5.565 5.565 0 0 0 0 11.986a5.56 5.56 0 0 0 1.805 4.123C3.261 20.999 7.302 24 12.003 24c4.7 0 8.742-3.001 10.197-7.191A5.558 5.558 0 0 0 24 12.014c0-1.683-.748-3.19-1.764-4.589zm-1.843 7.593c-1.126 3.441-4.354 5.93-8.39 5.93-4.038 0-7.265-2.489-8.39-5.93a4.007 4.007 0 0 1-1.065-2.717c0-.922.313-1.771.838-2.449C4.514 6.41 7.853 4.048 12.003 4.048c4.149 0 7.488 2.362 8.617 5.804a4 4 0 0 1 .833 2.449 3.998 3.998 0 0 1-1.06 2.717z"/></svg>
